<?xml version="1.0" standalone="no"?>
<!DOCTYPE svg PUBLIC "-//W3C//DTD SVG 20010904//EN"
 "http://www.w3.org/TR/2001/REC-SVG-20010904/DTD/svg10.dtd">
<svg version="1.0" xmlns="http://www.w3.org/2000/svg"
 width="500.000000pt" height="500.000000pt" viewBox="0 0 500.000000 500.000000"
 preserveAspectRatio="xMidYMid meet">

<g transform="translate(0.000000,500.000000) scale(0.100000,-0.100000)"
fill="#000000" stroke="none">
<path d="M0 2500 l0 -2500 2500 0 2500 0 0 2500 0 2500 -2500 0 -2500 0 0
-2500z m1293 1990 c19 -16 45 -54 58 -82 l24 -53 3 -1027 2 -1028 25 -36 25
-37 0 -787 0 -788 -28 -53 c-42 -81 -91 -111 -190 -117 -48 -3 -95 0 -118 8
-47 15 -99 62 -125 112 -18 36 -19 69 -19 842 l0 804 31 26 c28 24 38 26 120
26 l89 0 0 74 0 73 -112 5 c-121 5 -152 15 -202 64 -64 65 -61 22 -61 755 l0
666 82 164 c131 260 200 378 236 400 20 11 50 19 79 19 38 0 54 -6 81 -30z
m2345 -458 c15 -22 17 -62 20 -283 4 -288 -1 -315 -58 -344 -39 -20 -72 -13
-106 20 l-24 24 0 283 c0 314 1 320 63 336 42 11 83 -3 105 -36z m244 11 c23
-25 23 -25 23 -308 l0 -283 -23 -25 c-13 -14 -35 -28 -48 -31 -33 -9 -88 19
-103 50 -7 17 -11 114 -11 294 l0 268 25 31 c39 46 96 48 137 4z m-1379 3
c159 -56 297 -220 355 -421 121 -413 -45 -844 -370 -964 l-28 -11 0 -175 0
-175 40 0 c30 0 48 -7 72 -29 l33 -29 3 -778 c3 -877 5 -852 -68 -923 -50 -49
-107 -65 -205 -59 -90 6 -141 36 -183 107 l-27 46 -3 788 c-2 700 -1 791 13
821 18 38 51 56 101 56 l34 0 -2 176 -3 175 -58 24 c-158 64 -290 235 -348
451 -30 109 -32 335 -6 444 25 101 105 263 161 327 138 155 317 209 489 149z
m827 14 c44 -23 45 -33 50 -535 5 -475 5 -481 29 -539 28 -71 82 -127 137
-144 51 -15 225 -16 277 -1 84 23 146 111 166 240 7 37 11 245 11 500 l0 435
28 27 c38 36 93 37 127 2 l25 -24 0 -479 c0 -444 -1 -484 -20 -556 -25 -97
-62 -166 -122 -228 -51 -53 -143 -101 -215 -113 l-43 -7 0 -169 0 -169 34 0
c51 0 83 -16 101 -49 13 -26 15 -126 15 -814 l0 -783 -27 -55 c-42 -81 -91
-111 -191 -117 -48 -3 -94 0 -117 8 -47 16 -101 63 -126 111 -18 37 -19 66
-19 843 l0 804 31 26 c21 18 42 26 70 26 l39 0 0 169 0 169 -52 11 c-172 37
-290 170 -332 374 -13 63 -16 155 -16 532 l0 457 29 29 c31 31 75 38 111 19z"/>
<path d="M1092 4072 l-92 -181 2 -623 3 -623 88 -3 c64 -2 89 1 92 10 3 7 4
370 3 807 l-3 793 -93 -180z"/>
<path d="M1130 1403 c0 -390 4 -714 9 -721 5 -9 24 -12 52 -10 l44 3 3 718 2
717 -55 0 -55 0 0 -707z"/>
<path d="M2313 3881 c-254 -64 -377 -506 -229 -826 69 -148 182 -233 298 -222
143 13 255 143 309 357 18 71 21 102 16 195 -7 125 -24 200 -70 294 -71 146
-208 231 -324 202z"/>
<path d="M2312 1393 l3 -718 50 0 50 0 3 718 2 717 -55 0 -55 0 2 -717z"/>
<path d="M3630 1406 c0 -387 3 -711 6 -720 4 -12 20 -16 55 -16 l49 0 0 720 0
720 -55 0 -55 0 0 -704z"/>
</g>
</svg>
