<svg width="925" height="1068" viewBox="0 0 925 1068" fill="none" xmlns="http://www.w3.org/2000/svg">
<g clip-path="url(#clip0)">
<path d="M462.5 1068C717.932 1068 925 1054.77 925 1038.45C925 1022.13 717.932 1008.9 462.5 1008.9C207.068 1008.9 0 1022.13 0 1038.45C0 1054.77 207.068 1068 462.5 1068Z" fill="#E6E6E6"/>
<path d="M210.002 373.421L174.94 399.026L540.087 1018.94L575.149 993.33L210.002 373.421Z" fill="#E6E6E6"/>
<path d="M126.53 140.132L207.651 277.851C209.222 280.518 209.777 283.771 209.194 286.894C208.612 290.016 206.939 292.753 204.543 294.503C202.148 296.252 199.227 296.87 196.423 296.221C193.618 295.572 191.16 293.709 189.589 291.042L96.3308 132.717C83.6724 131.54 70.9489 133.867 59.2935 139.49L160.902 311.992C162.472 314.659 163.027 317.911 162.444 321.033C161.86 324.155 160.188 326.891 157.793 328.64C155.398 330.389 152.478 331.007 149.674 330.359C146.87 329.71 144.412 327.848 142.84 325.182L41.2315 152.681C31.9555 162.344 24.9694 174.411 20.8954 187.808L114.154 346.132C115.724 348.799 116.278 352.051 115.695 355.173C115.112 358.295 113.439 361.031 111.044 362.78C108.649 364.529 105.729 365.147 102.925 364.499C100.121 363.851 97.6631 361.989 96.0918 359.323L14.9708 221.604C12.8873 260.003 24.1312 305.517 48.7731 347.351C94.571 425.102 169.277 460.688 215.633 426.835C261.989 392.981 262.441 302.507 216.643 224.756C192.001 182.922 158.991 153.304 126.53 140.132Z" fill="#E6E6E6"/>
<path d="M367.204 288.616H325.274V1029.96H367.204V288.616Z" fill="#E6E6E6"/>
<path d="M345.604 336.719C401.041 336.719 445.982 261.342 445.982 168.359C445.982 75.3771 401.041 0 345.604 0C290.167 0 245.227 75.3771 245.227 168.359C245.227 261.342 290.167 336.719 345.604 336.719Z" fill="#E6E6E6"/>
<path d="M345.604 306.883C391.217 306.883 428.193 244.864 428.193 168.359C428.193 91.855 391.217 29.8359 345.604 29.8359C299.991 29.8359 263.015 91.855 263.015 168.359C263.015 244.864 299.991 306.883 345.604 306.883Z" fill="#CCCCCC"/>
<path d="M736.02 1038.02C562.694 1003.23 385.178 1003.23 211.851 1038.02C209.098 1038.57 206.268 1038.45 203.563 1037.65C200.857 1036.86 198.342 1035.41 196.193 1033.42C194.044 1031.42 192.315 1028.92 191.128 1026.1C189.94 1023.28 189.323 1020.21 189.32 1017.09V752.665H758.551V1017.09C758.548 1020.21 757.931 1023.28 756.744 1026.1C755.556 1028.92 753.827 1031.42 751.678 1033.42C749.53 1035.41 747.014 1036.86 744.308 1037.65C741.603 1038.45 738.774 1038.57 736.02 1038.02V1038.02Z" fill="#E2E04B"/>
<path d="M706.456 557.425C693.312 557.412 680.259 559.844 667.835 564.621C649.715 520.858 620.759 483.758 584.368 457.675C547.976 431.592 505.657 417.608 462.378 417.365C419.1 417.121 376.656 430.628 340.03 456.3C303.403 481.972 274.112 518.745 255.595 562.302C237.362 556.606 218.167 555.874 199.626 560.165C181.085 564.457 163.742 573.647 149.058 586.962C134.374 600.276 122.778 617.326 115.248 636.673C107.719 656.02 104.475 677.099 105.79 698.134C107.106 719.17 112.943 739.544 122.808 757.543C132.674 775.541 146.28 790.636 162.48 801.556C178.68 812.476 196.999 818.901 215.895 820.289C234.791 821.678 253.71 817.99 271.058 809.535C291.91 844.914 320.389 873.912 353.896 893.881C387.403 913.849 424.87 924.152 462.873 923.848C500.876 923.543 538.206 912.641 571.451 892.138C604.696 871.635 632.799 842.183 653.19 806.474C669.122 815.429 686.668 820.25 704.512 820.576C722.356 820.901 740.034 816.723 756.22 808.353C772.407 799.984 786.68 787.641 797.97 772.251C809.26 756.861 817.273 738.824 821.407 719.493C825.542 700.162 825.69 680.04 821.842 660.636C817.994 641.232 810.249 623.05 799.188 607.455C788.127 591.861 774.037 579.258 757.977 570.593C741.917 561.928 724.302 557.426 706.456 557.425V557.425Z" fill="#E2E04B"/>
<path d="M235.061 670.608H232.52C232.434 632.936 239.921 595.72 254.434 561.69L256.731 562.902C242.38 596.553 234.975 633.355 235.061 670.608V670.608Z" fill="#3F3D56"/>
<path d="M689.938 670.608H687.396C687.475 634.214 680.409 598.24 666.693 565.205L669.001 564.02C682.872 597.426 690.017 633.804 689.938 670.608V670.608Z" fill="#3F3D56"/>
<path d="M189.627 875.71L189.014 872.964C189.731 872.766 261.951 853.016 367.788 843.216C465.473 834.172 612.616 831.99 758.861 872.965L758.241 875.709C612.354 834.836 465.533 837.008 368.052 846.032C262.404 855.809 190.342 875.513 189.627 875.71Z" fill="#3F3D56"/>
<path d="M189.627 913.909L189.014 911.163C189.731 910.965 261.951 891.215 367.788 881.415C465.473 872.371 612.616 870.189 758.861 911.164L758.241 913.908C612.354 873.035 465.533 875.21 368.052 884.231C262.404 894.008 190.342 913.712 189.627 913.909Z" fill="#3F3D56"/>
<path d="M189.627 952.109L189.014 949.362C189.731 949.164 261.951 929.414 367.788 919.614C465.473 910.57 612.616 908.389 758.861 949.363L758.241 952.107C612.354 911.235 465.533 913.409 368.052 922.43C262.404 932.208 190.342 951.911 189.627 952.109Z" fill="#3F3D56"/>
<path d="M657.242 744.397L626.454 732.742L656.01 564.766L635.691 562.709C615.877 579.636 589.492 586.272 555.644 581.221L609.829 672.408L582.2 694.124L494.061 576.406C490.088 571.1 487.912 564.411 487.912 557.503C487.912 551.098 489.783 544.868 493.241 539.751C496.7 534.634 501.559 530.908 507.086 529.135L601.209 498.947L711.427 512.66C728.091 540.947 728.742 560.62 703.376 566.295L657.242 744.397Z" fill="#2F2E41"/>
<path d="M625.731 809.743C622.548 809.519 619.458 808.462 616.711 806.659C613.965 804.855 611.639 802.355 609.922 799.363C608.206 796.37 607.147 792.969 606.833 789.436C606.519 785.902 606.957 782.336 608.113 779.027L623.419 735.203C631.193 718.804 641.863 720.857 654.463 735.203L660.621 755.315C661.128 756.971 661.329 758.724 661.212 760.468C661.095 762.213 660.663 763.913 659.941 765.467L645.022 797.583C643.214 801.476 640.427 804.699 637.001 806.859C633.575 809.018 629.659 810.02 625.731 809.743V809.743Z" fill="#2F2E41"/>
<path d="M585.942 752.356C582.759 752.131 579.669 751.074 576.922 749.271C574.175 747.467 571.849 744.968 570.133 741.975C568.417 738.983 567.358 735.582 567.044 732.048C566.73 728.515 567.168 724.949 568.324 721.639L583.63 677.816C591.404 661.417 602.074 663.47 614.674 677.816L620.831 697.927C621.338 699.583 621.54 701.336 621.423 703.081C621.306 704.825 620.874 706.526 620.152 708.08L605.233 740.196C603.425 744.089 600.637 747.312 597.212 749.471C593.786 751.63 589.87 752.633 585.942 752.356Z" fill="#2F2E41"/>
<path d="M605.519 338.513C624.562 338.513 640 321.324 640 300.119C640 278.914 624.562 261.725 605.519 261.725C586.475 261.725 571.037 278.914 571.037 300.119C571.037 321.324 586.475 338.513 605.519 338.513Z" fill="#FFB9B9"/>
<path d="M659.089 354.283L611.676 381.708L601.824 332.343L634.458 309.718L659.089 354.283Z" fill="#FFB9B9"/>
<path d="M716.352 519.516C669.043 503.605 626.117 495.361 595.051 507.861C605.759 474.319 585.995 423.099 564.264 370.738C573.64 357.089 588.59 351.803 605.519 349.484C624.04 364.458 636.955 354.847 646.773 331.658C668.188 330.7 688.824 339.144 708.964 353.597C693.22 409.744 696.054 465.034 716.352 519.516Z" fill="#3F3D56"/>
<path d="M594.436 516.087C586.965 520.99 580.071 529.249 573.501 539.398C562.398 531.83 552.627 523.214 544.93 512.966C539.542 505.7 535.868 497.051 534.242 487.804C532.615 478.557 533.088 469.004 535.616 460.012L556.658 383.866C558.406 377.541 561.801 371.937 566.413 367.765L569.19 365.252L596.899 423.529L569.19 481.121C572.704 491.611 583.058 503.727 594.436 516.087Z" fill="#3F3D56"/>
<path d="M603.973 574.144C601.46 575.419 598.716 576.026 595.957 575.917C593.198 575.807 590.5 574.984 588.076 573.513C585.652 572.042 583.568 569.963 581.99 567.44C580.412 564.918 579.383 562.021 578.984 558.979L574.404 524.07L590.414 514.472L610.732 544.088C612.355 546.454 613.478 549.196 614.018 552.112C614.559 555.027 614.502 558.041 613.852 560.929C613.203 563.816 611.978 566.504 610.267 568.792C608.557 571.08 606.405 572.909 603.973 574.144V574.144Z" fill="#FFB9B9"/>
<path d="M640.308 298.439L634.421 298.634L618.09 272.875C597.164 275.284 580.016 285.407 565.506 300.913L564.034 289.992C562.631 279.577 564.866 268.959 570.279 260.322C575.692 251.686 583.871 245.687 593.135 243.56H593.135C598.001 242.443 603.019 242.429 607.889 243.519C612.76 244.61 617.383 246.782 621.483 249.906C625.583 253.03 629.076 257.042 631.753 261.702C634.429 266.362 636.235 271.575 637.062 277.03L640.308 298.439Z" fill="#2F2E41"/>
<path d="M574.094 539.412C572.949 536.615 572.404 533.56 572.503 530.488C572.601 527.416 573.34 524.411 574.661 521.712C575.982 519.013 577.849 516.693 580.115 514.936C582.38 513.179 584.982 512.033 587.714 511.588L619.065 506.489L627.686 524.315L601.087 546.939C598.963 548.746 596.5 549.997 593.881 550.598C591.263 551.2 588.557 551.137 585.963 550.414C583.37 549.691 580.956 548.326 578.901 546.421C576.846 544.517 575.203 542.121 574.094 539.412V539.412Z" fill="#FFB9B9"/>
<path d="M722.326 507.658C692.498 510.237 659.932 520.594 625.839 535.285C625.415 524.016 621.745 513.198 615.371 504.432C646.336 495.351 674.434 484.694 691.723 468.094L681.256 380.336L704.038 351.54L707.968 353.823C711.232 355.711 714.103 358.342 716.394 361.546C718.686 364.749 720.347 368.453 721.27 372.418C730.889 414.082 735.162 454.001 732.225 491.568C732.604 495.13 731.81 498.724 729.989 501.683C728.169 504.642 725.446 506.765 722.326 507.658V507.658Z" fill="#3F3D56"/>
<path d="M121.833 1030.12C94.0925 1049.44 66.3522 1049.43 38.6118 1030.1C37.7336 1029.5 37.0204 1028.64 36.5497 1027.62C36.079 1026.59 35.8688 1025.45 35.9419 1024.3L44.5978 899.007H114.609L124.498 1024.26C124.583 1025.41 124.379 1026.57 123.909 1027.61C123.439 1028.64 122.72 1029.51 121.833 1030.12V1030.12Z" fill="#3F3D56"/>
<path d="M79.2805 914.597C98.7918 914.597 114.609 908.252 114.609 900.424C114.609 892.596 98.7918 886.25 79.2805 886.25C59.7692 886.25 43.9521 892.596 43.9521 900.424C43.9521 908.252 59.7692 914.597 79.2805 914.597Z" fill="#3F3D56"/>
<path d="M106.972 895.639C88.5627 910.058 70.7418 910.058 53.5088 895.639V872.961H106.972V895.639Z" fill="#E2E04B"/>
<path d="M80.2402 884.3C95.0036 884.3 106.972 879.223 106.972 872.961C106.972 866.699 95.0036 861.622 80.2402 861.622C65.4769 861.622 53.5088 866.699 53.5088 872.961C53.5088 879.223 65.4769 884.3 80.2402 884.3Z" fill="#E2E04B"/>
<path d="M81.5126 872.962C82.9187 872.962 84.0585 872.327 84.0585 871.544C84.0585 870.762 82.9187 870.127 81.5126 870.127C80.1066 870.127 78.9668 870.762 78.9668 871.544C78.9668 872.327 80.1066 872.962 81.5126 872.962Z" fill="#E6E6E6"/>
<path d="M93.5341 872.962C94.9402 872.962 96.08 872.327 96.08 871.544C96.08 870.762 94.9402 870.127 93.5341 870.127C92.1281 870.127 90.9883 870.762 90.9883 871.544C90.9883 872.327 92.1281 872.962 93.5341 872.962Z" fill="#E6E6E6"/>
<path d="M87.5234 876.307C88.9294 876.307 90.0692 875.673 90.0692 874.89C90.0692 874.107 88.9294 873.473 87.5234 873.473C86.1174 873.473 84.9775 874.107 84.9775 874.89C84.9775 875.673 86.1174 876.307 87.5234 876.307Z" fill="#E6E6E6"/>
<path d="M63.4814 876.307C64.8874 876.307 66.0272 875.673 66.0272 874.89C66.0272 874.107 64.8874 873.473 63.4814 873.473C62.0754 873.473 60.9355 874.107 60.9355 874.89C60.9355 875.673 62.0754 876.307 63.4814 876.307Z" fill="#E6E6E6"/>
<path d="M69.4921 872.962C70.8982 872.962 72.038 872.327 72.038 871.544C72.038 870.762 70.8982 870.127 69.4921 870.127C68.0861 870.127 66.9463 870.762 66.9463 871.544C66.9463 872.327 68.0861 872.962 69.4921 872.962Z" fill="#E6E6E6"/>
<path d="M75.5019 877.981C76.9079 877.981 78.0477 877.347 78.0477 876.564C78.0477 875.781 76.9079 875.146 75.5019 875.146C74.0959 875.146 72.9561 875.781 72.9561 876.564C72.9561 877.347 74.0959 877.981 75.5019 877.981Z" fill="#E6E6E6"/>
<path d="M890.549 1030.12C862.808 1049.44 835.068 1049.43 807.328 1030.1C806.449 1029.5 805.736 1028.64 805.266 1027.62C804.795 1026.59 804.585 1025.45 804.658 1024.3L813.314 899.007H883.325L893.214 1024.26C893.299 1025.41 893.095 1026.57 892.625 1027.61C892.154 1028.64 891.436 1029.51 890.549 1030.12V1030.12Z" fill="#3F3D56"/>
<path d="M847.996 914.597C867.508 914.597 883.325 908.252 883.325 900.424C883.325 892.596 867.508 886.25 847.996 886.25C828.485 886.25 812.668 892.596 812.668 900.424C812.668 908.252 828.485 914.597 847.996 914.597Z" fill="#3F3D56"/>
<path d="M875.687 895.639C857.278 910.058 839.457 910.058 822.224 895.639V872.961H875.687V895.639Z" fill="#E2E04B"/>
<path d="M848.955 884.3C863.719 884.3 875.687 879.223 875.687 872.961C875.687 866.699 863.719 861.622 848.955 861.622C834.192 861.622 822.224 866.699 822.224 872.961C822.224 879.223 834.192 884.3 848.955 884.3Z" fill="#E2E04B"/>
<path d="M850.228 872.962C851.634 872.962 852.774 872.327 852.774 871.544C852.774 870.762 851.634 870.127 850.228 870.127C848.822 870.127 847.683 870.762 847.683 871.544C847.683 872.327 848.822 872.962 850.228 872.962Z" fill="#E6E6E6"/>
<path d="M862.25 872.962C863.656 872.962 864.796 872.327 864.796 871.544C864.796 870.762 863.656 870.127 862.25 870.127C860.844 870.127 859.704 870.762 859.704 871.544C859.704 872.327 860.844 872.962 862.25 872.962Z" fill="#E6E6E6"/>
<path d="M856.239 876.307C857.645 876.307 858.785 875.673 858.785 874.89C858.785 874.107 857.645 873.473 856.239 873.473C854.833 873.473 853.693 874.107 853.693 874.89C853.693 875.673 854.833 876.307 856.239 876.307Z" fill="#E6E6E6"/>
<path d="M832.196 876.307C833.602 876.307 834.742 875.673 834.742 874.89C834.742 874.107 833.602 873.473 832.196 873.473C830.79 873.473 829.65 874.107 829.65 874.89C829.65 875.673 830.79 876.307 832.196 876.307Z" fill="#E6E6E6"/>
<path d="M838.207 872.962C839.613 872.962 840.753 872.327 840.753 871.544C840.753 870.762 839.613 870.127 838.207 870.127C836.801 870.127 835.661 870.762 835.661 871.544C835.661 872.327 836.801 872.962 838.207 872.962Z" fill="#E6E6E6"/>
<path d="M844.218 877.981C845.624 877.981 846.764 877.347 846.764 876.564C846.764 875.781 845.624 875.146 844.218 875.146C842.812 875.146 841.672 875.781 841.672 876.564C841.672 877.347 842.812 877.981 844.218 877.981Z" fill="#E6E6E6"/>
</g>
<defs>
<clipPath id="clip0">
<rect class="chapeu" width="925" height="1068" fill="white"/>
</clipPath>
</defs>
</svg>
